<svg width="200" height="51" viewBox="0 0 200 51" fill="none" xmlns="http://www.w3.org/2000/svg">
<path d="M67.9299 32.8514V40.3176H62.6471V18.3784H71.4327C73.0979 18.3784 74.5909 18.6655 75.9116 19.2973C77.2323 19.929 78.2084 20.7905 78.8975 21.9392C79.5866 23.0878 79.9885 24.3514 79.9885 25.8446C79.9885 27.9696 79.242 29.6926 77.6916 30.9561C76.1413 32.2196 74.0741 32.8514 71.3753 32.8514H67.9299ZM67.9299 28.7736H71.3753C72.4088 28.7736 73.1553 28.5439 73.7295 28.027C74.2463 27.5101 74.5335 26.7635 74.5335 25.8446C74.5335 24.8108 74.2463 24.0068 73.7295 23.375C73.1553 22.7432 72.4088 22.4561 71.4901 22.4561H67.9874V28.7736H67.9299Z" fill="white"/>
<path d="M92.5065 36.1824H85.2713L84.008 40.2601H78.3233L86.3623 18.321H91.358L99.4545 40.2601H93.7697L92.5065 36.1824ZM86.5346 32.1047H91.2432L88.8889 24.4662L86.5346 32.1047Z" fill="white"/>
<path d="M106.747 40.3176H101.464V18.3784H106.747V40.3176Z" fill="white"/>
<path d="M136.492 40.3176H131.209V31.1284H123.399V40.3176H118.117V18.3784H123.399V27.1081H131.209V18.3784H136.492V40.3176Z" fill="white"/>
<path d="M157.049 18.321V32.6791C157.049 34.2872 156.704 35.723 156.015 36.9291C155.326 38.1351 154.35 39.0541 153.029 39.6284C151.708 40.2601 150.215 40.5473 148.435 40.5473C145.736 40.5473 143.669 39.8581 142.119 38.4797C140.568 37.1014 139.822 35.2061 139.765 32.7939V18.321H145.105V32.9088C145.162 35.321 146.253 36.527 148.435 36.527C149.526 36.527 150.388 36.2399 150.904 35.6081C151.421 34.9764 151.766 34 151.766 32.6791V18.321H157.049Z" fill="white"/>
<path d="M178.352 37.5608C177.548 38.4797 176.342 39.1689 174.792 39.7432C173.241 40.3176 171.519 40.5473 169.624 40.5473C166.753 40.5473 164.456 39.6858 162.733 37.9054C161.011 36.125 160.092 33.7128 159.977 30.5541V28.6588C159.977 26.4764 160.379 24.5811 161.125 22.973C161.872 21.3649 162.963 20.1014 164.399 19.2399C165.834 18.3784 167.442 17.9189 169.337 17.9189C172.093 17.9189 174.218 18.5507 175.711 19.8142C177.204 21.0777 178.122 22.9155 178.352 25.4426H173.241C173.069 24.2365 172.667 23.3176 172.093 22.8007C171.461 22.2838 170.657 21.9966 169.509 21.9966C168.188 21.9966 167.155 22.5709 166.408 23.6622C165.662 24.8108 165.317 26.4189 165.317 28.4865V29.8074C165.317 31.9899 165.719 33.6554 166.466 34.7466C167.212 35.8378 168.418 36.4122 170.026 36.4122C171.404 36.4122 172.438 36.125 173.127 35.4932V32.1047H169.452V28.4865H178.409V37.5608H178.352Z" fill="white"/>
<path d="M200 29.75C200 31.875 199.598 33.7703 198.794 35.4358C197.99 37.1013 196.899 38.3649 195.406 39.2263C193.971 40.0878 192.248 40.5473 190.411 40.5473C188.516 40.5473 186.908 40.1453 185.415 39.2838C183.979 38.4223 182.831 37.2162 182.027 35.6081C181.223 34 180.821 32.1622 180.764 30.0946V28.8885C180.764 26.7635 181.166 24.8108 181.97 23.2027C182.773 21.5946 183.864 20.2736 185.357 19.4122C186.85 18.4932 188.516 18.0912 190.411 18.0912C192.248 18.0912 193.913 18.5507 195.406 19.4122C196.899 20.2736 197.99 21.5372 198.794 23.2027C199.598 24.8108 200 26.7061 200 28.8311V29.75ZM194.602 28.8311C194.602 26.6486 194.258 24.9831 193.511 23.8345C192.765 22.6858 191.731 22.1115 190.353 22.1115C187.712 22.1115 186.276 24.1216 186.161 28.0845V29.6926C186.161 31.8176 186.506 33.4831 187.252 34.6318C187.941 35.7804 189.032 36.3547 190.411 36.3547C191.731 36.3547 192.765 35.7804 193.511 34.6318C194.258 33.4831 194.602 31.875 194.602 29.75V28.8311Z" fill="white"/>
<path d="M11.8863 39.0541L45.7651 5.16891" stroke="white" stroke-width="2" stroke-miterlimit="10"/>
<path d="M12.7476 43.9358L12.6902 43.6486L12.7476 38.9966L5.74218 46.0608L5.62733 51L12.7476 43.9358Z" fill="white"/>
<path d="M0 45.3716L4.93827 45.2567L12.0011 38.1926C10.3933 38.4223 8.72811 38.4223 7.1203 38.3074L0 45.3716Z" fill="white"/>
<path d="M46.5116 10.4527L44.789 6.14525L40.4823 4.42228L50.646 0.344574L46.5116 10.4527Z" fill="white"/>
<path d="M41.5734 39.0541L7.6371 5.16891" stroke="white" stroke-width="2" stroke-miterlimit="10"/>
<path d="M46.3968 38.25H46.1097L41.4585 38.1926L48.5214 45.2568L53.4597 45.3142L46.3968 38.25Z" fill="white"/>
<path d="M47.8323 50.9426L47.7175 46.0034L40.6546 38.9392C40.8843 40.5473 40.8843 42.2128 40.7695 43.8209L47.8323 50.9426Z" fill="white"/>
<path d="M12.9199 4.42228L8.67069 6.14525L6.94803 10.4527L2.81367 0.344574L12.9199 4.42228Z" fill="white"/>
<path d="M1.60781 24.0067C2.87109 24.0067 2.87109 25.7297 4.13437 25.7297C5.39765 25.7297 5.39765 24.0067 6.66092 24.0067C7.9242 24.0067 7.9242 25.7297 9.18748 25.7297C10.4508 25.7297 10.4508 24.0067 11.714 24.0067C12.9773 24.0067 12.9773 25.7297 14.2406 25.7297" fill="#36A9E1"/>
<path d="M14.0683 26.2466C13.1496 26.2466 12.6328 25.8446 12.2883 25.6149C12.0011 25.4426 11.8863 25.3277 11.5992 25.3277C11.2547 25.3277 11.1972 25.3851 10.9101 25.6149C10.5656 25.902 10.0488 26.2466 9.13006 26.2466C8.21131 26.2466 7.69452 25.8446 7.34999 25.6149C7.06288 25.4426 6.94803 25.3277 6.66093 25.3277C6.31639 25.3277 6.25897 25.3851 5.97186 25.6149C5.62733 25.902 5.11054 26.2466 4.19179 26.2466C3.27304 26.2466 2.75624 25.8446 2.41171 25.6149C2.12461 25.4426 2.00976 25.3277 1.72265 25.3277V23.4899C2.6414 23.4899 3.1582 23.8919 3.50273 24.1216C3.78984 24.2939 3.90468 24.4088 4.19179 24.4088C4.53632 24.4088 4.59374 24.3514 4.88085 24.1216C5.22538 23.8345 5.74218 23.4899 6.66093 23.4899C7.57967 23.4899 8.09647 23.8919 8.441 24.1216C8.72811 24.2939 8.84295 24.4088 9.13006 24.4088C9.47459 24.4088 9.53201 24.3514 9.81912 24.1216C10.1637 23.8345 10.6804 23.4899 11.5992 23.4899C12.5179 23.4899 13.0347 23.8919 13.3793 24.1216C13.6664 24.2939 13.7812 24.4088 14.0683 24.4088V26.2466Z" fill="#36A9E1"/>
<path d="M1.60781 20.2736C2.87109 20.2736 2.87109 21.9966 4.13437 21.9966C5.39765 21.9966 5.39765 20.2736 6.66092 20.2736C7.9242 20.2736 7.9242 21.9966 9.18748 21.9966C10.4508 21.9966 10.4508 20.2736 11.714 20.2736C12.9773 20.2736 12.9773 21.9966 14.2406 21.9966" fill="#36A9E1"/>
<path d="M14.0683 22.5135C13.1496 22.5135 12.6328 22.1115 12.2883 21.8817C12.0011 21.7094 11.8863 21.5946 11.5992 21.5946C11.2547 21.5946 11.1972 21.652 10.9101 21.8817C10.5656 22.1689 10.0488 22.5135 9.13006 22.5135C8.21131 22.5135 7.69452 22.1115 7.34999 21.8817C7.06288 21.7094 6.94803 21.5946 6.66093 21.5946C6.31639 21.5946 6.25897 21.652 5.97186 21.8817C5.62733 22.1689 5.11054 22.5135 4.19179 22.5135C3.27304 22.5135 2.75624 22.1115 2.41171 21.8817C2.12461 21.7094 2.00976 21.5946 1.72265 21.5946V19.7567C2.6414 19.7567 3.1582 20.1588 3.50273 20.3885C3.78984 20.5608 3.90468 20.6757 4.19179 20.6757C4.53632 20.6757 4.59374 20.6182 4.88085 20.3885C5.22538 20.1013 5.74218 19.7567 6.66093 19.7567C7.57967 19.7567 8.09647 20.1588 8.441 20.3885C8.72811 20.5608 8.84295 20.6757 9.13006 20.6757C9.47459 20.6757 9.53201 20.6182 9.81912 20.3885C10.1637 20.1013 10.6804 19.7567 11.5992 19.7567C12.5179 19.7567 13.0347 20.1588 13.3793 20.3885C13.6664 20.5608 13.7812 20.6757 14.0683 20.6757V22.5135Z" fill="#36A9E1"/>
<path d="M1.60781 27.7398C2.87109 27.7398 2.87109 29.4628 4.13437 29.4628C5.39765 29.4628 5.39765 27.7398 6.66092 27.7398C7.9242 27.7398 7.9242 29.4628 9.18748 29.4628C10.4508 29.4628 10.4508 27.7398 11.714 27.7398C12.9773 27.7398 12.9773 29.4628 14.2406 29.4628" fill="#36A9E1"/>
<path d="M14.0683 29.9797C13.1496 29.9797 12.6328 29.5777 12.2883 29.348C12.0011 29.1757 11.8863 29.0608 11.5992 29.0608C11.2547 29.0608 11.1972 29.1182 10.9101 29.348C10.5656 29.6351 10.0488 29.9797 9.13006 29.9797C8.21131 29.9797 7.69452 29.5777 7.34999 29.348C7.06288 29.1757 6.94803 29.0608 6.66093 29.0608C6.31639 29.0608 6.25897 29.1182 5.97186 29.348C5.62733 29.6351 5.11054 29.9797 4.19179 29.9797C3.27304 29.9797 2.75624 29.5777 2.41171 29.348C2.12461 29.1757 2.00976 29.0608 1.72265 29.0608V27.1655C2.6414 27.1655 3.1582 27.5676 3.50273 27.7973C3.78984 27.9696 3.90468 28.0844 4.19179 28.0844C4.53632 28.0844 4.59374 28.027 4.88085 27.7973C5.22538 27.5101 5.74218 27.1655 6.66093 27.1655C7.57967 27.1655 8.09647 27.5676 8.441 27.7973C8.72811 27.9696 8.84295 28.0844 9.13006 28.0844C9.47459 28.0844 9.53201 28.027 9.81912 27.7973C10.1637 27.5101 10.6804 27.1655 11.5992 27.1655C12.5179 27.1655 13.0347 27.5676 13.3793 27.7973C13.6664 27.9696 13.7812 28.0844 14.0683 28.0844V29.9797Z" fill="#36A9E1"/>
<path d="M36.6925 39.3986C36.9796 39.6858 36.8074 40.1453 36.4054 40.2027C36.2906 40.2027 36.2331 40.2027 36.1183 40.2027C35.1995 40.2027 34.3382 39.8581 33.764 39.2263C33.5917 39.054 33.3046 39.054 33.0749 39.2263C32.4433 39.8007 31.6394 40.2027 30.7206 40.2027C29.8019 40.2027 28.9406 39.8007 28.3089 39.2263C28.1367 39.054 27.8496 39.054 27.6773 39.2263C27.0457 39.8581 26.2417 40.2027 25.2656 40.2027C24.3468 40.2027 23.4855 39.8581 22.9113 39.2263C22.739 39.054 22.3945 39.054 22.2222 39.2263C21.5906 39.8007 20.7867 40.2027 19.8679 40.2027C19.7531 40.2027 19.6957 40.2027 19.5808 40.2027C19.1789 40.1453 19.0066 39.6858 19.2937 39.3986L19.6957 38.9966C19.8105 38.8818 19.9254 38.8243 20.0402 38.8243C20.9015 38.7669 21.5906 38.1351 21.8203 37.3311C21.9351 37.0439 22.1648 36.8142 22.5093 36.8142H22.5668C22.9113 36.8142 23.2558 37.0439 23.3132 37.3885C23.5429 38.25 24.3468 38.8817 25.2656 38.8817C26.1843 38.8817 26.9882 38.25 27.2179 37.3885C27.3328 37.0439 27.6199 36.8142 27.9644 36.8142C28.3089 36.8142 28.6535 37.0439 28.7109 37.3885C28.9406 38.25 29.7445 38.8817 30.6632 38.8817C31.582 38.8817 32.3859 38.25 32.6156 37.3885C32.7304 37.0439 33.0175 36.8142 33.362 36.8142C33.7066 36.8142 34.0511 37.0439 34.1085 37.3885C34.3382 38.1926 35.0273 38.7669 35.8886 38.8817C36.0034 38.8817 36.1757 38.9392 36.2331 39.0541L36.6925 39.3986Z" fill="#1D71B8"/>
<path d="M51.4499 30.6689C51.1054 30.4392 50.8183 30.2669 50.4737 30.0372C49.6698 29.5203 48.8659 29.0034 48.062 28.4865C47.0858 29.4054 46.1671 30.3243 45.1909 31.2433C44.5019 31.9324 43.3534 30.8412 44.0999 30.152C44.387 29.8649 44.6167 29.6351 44.9038 29.348C45.478 28.7737 46.1097 28.1993 46.6839 27.5676C45.6503 26.9358 44.6741 26.2466 43.6405 25.6149C42.7792 25.098 43.5831 23.7196 44.4444 24.2939C44.789 24.5237 45.0761 24.696 45.4206 24.9257C46.2245 25.4426 47.0284 25.9595 47.8323 26.4764C48.8085 25.5574 49.7273 24.6385 50.7034 23.7196C51.3925 23.0304 52.5409 24.1216 51.7944 24.8108C51.5073 25.098 51.2776 25.3277 50.9905 25.6149C50.4163 26.1892 49.7847 26.7635 49.2105 27.3953C50.244 28.027 51.2202 28.7162 52.2538 29.348C53.0577 29.8649 52.3112 31.2433 51.4499 30.6689Z" fill="#432918"/>
<path d="M46.8562 16.7128C47.3155 17.8615 48.1769 18.5507 48.7511 19.0101C49.4401 19.527 49.555 19.6993 49.555 19.9865C49.555 21.3649 48.6362 22.4561 47.5452 22.4561C46.4542 22.4561 45.5355 21.3649 45.5355 19.9865C45.478 19.3547 46.1671 17.8615 46.8562 16.7128ZM47.4878 14.071C46.7987 14.071 44.2722 18.2635 44.2722 20.0439C44.2722 22.1115 45.7077 23.777 47.5452 23.777C49.3253 23.777 50.8183 22.1115 50.8183 20.0439C50.8183 17.8615 47.7175 18.2061 47.7175 14.473C47.6601 14.1858 47.6026 14.071 47.4878 14.071Z" fill="#F39200"/>
<path d="M35.7738 0C35.3718 0 32.0988 0.746622 28.7683 2.87162C26.0121 4.65203 25.9546 8.27026 27.1605 9.87837L24.6914 12.9797C24.4617 13.2669 24.5191 13.6115 24.8062 13.8412C24.921 13.9561 25.0359 13.9561 25.2082 13.9561C25.3804 13.9561 25.5527 13.8986 25.6675 13.7263L28.1367 10.625C28.596 10.7973 29.1128 10.9122 29.6871 10.9122C31.582 10.9122 33.8788 9.87838 34.5679 7.40878C35.6589 3.67567 35.946 0.0574324 35.7738 0ZM33.5343 4.19256H33.2472L34.3382 2.81419C34.2808 3.33108 34.166 3.84796 34.0511 4.42229C33.9363 4.24999 33.764 4.19256 33.5343 4.19256ZM31.8691 2.58446C32.4433 2.2973 32.9601 2.06756 33.4195 1.89526L32.4433 3.10135C32.4433 2.81419 32.2136 2.58446 31.8691 2.58446ZM27.6773 7.12162C27.7347 6.48986 27.9644 4.88175 29.4574 3.9054C30.1464 3.44594 30.7781 3.10134 31.4097 2.75675C31.2949 2.87161 31.2374 2.98649 31.2374 3.15878V4.65201L30.5484 5.5135V4.99661C30.5484 4.65202 30.2613 4.36485 29.9167 4.36485C29.5722 4.36485 29.2851 4.65202 29.2851 4.99661V7.12162L27.907 8.84459C27.7921 8.44256 27.6199 7.81081 27.6773 7.12162ZM33.362 7.12162C32.7878 9.13175 30.7206 9.70608 29.6296 9.70608C29.3425 9.70608 29.1128 9.64864 28.8831 9.64864L30.2038 7.98311H32.3285C32.673 7.98311 32.9601 7.69594 32.9601 7.35135C32.9601 7.00675 32.673 6.71958 32.3285 6.71958H31.18L32.2136 5.39865H33.4769C33.5917 5.39865 33.7066 5.34121 33.764 5.34121C33.7066 5.91553 33.5917 6.48986 33.362 7.12162Z" fill="#008D36"/>
</svg>
