<svg width="212" height="180" viewBox="0 0 212 180" fill="none" xmlns="http://www.w3.org/2000/svg">
<path d="M8.15384 168.136V179.646H0V145.824H13.5602C16.1304 145.824 18.4348 146.267 20.4732 147.241C22.5117 148.215 24.0184 149.543 25.0819 151.314C26.1455 153.084 26.7659 155.032 26.7659 157.334C26.7659 160.61 25.6137 163.266 23.2207 165.214C20.8278 167.162 17.6371 168.136 13.4716 168.136H8.15384ZM8.15384 161.85H13.4716C15.0669 161.85 16.2191 161.496 17.1053 160.699C17.903 159.902 18.3461 158.751 18.3461 157.334C18.3461 155.741 17.903 154.501 17.1053 153.527C16.2191 152.553 15.0669 152.11 13.6488 152.11H8.24247V161.85H8.15384Z" fill="white"/>
<path d="M46.087 173.271H34.9197L32.9699 179.557H24.1956L36.6037 145.735H44.3144L56.811 179.557H48.0368L46.087 173.271ZM36.8696 166.985H44.1371L40.5033 155.209L36.8696 166.985Z" fill="white"/>
<path d="M68.0669 179.646H59.913V145.824H68.0669V179.646Z" fill="white"/>
<path d="M113.977 179.646H105.823V165.48H93.7692V179.646H85.6154V145.824H93.7692V159.282H105.823V145.824H113.977V179.646Z" fill="white"/>
<path d="M145.706 145.735V167.87C145.706 170.349 145.174 172.563 144.11 174.422C143.047 176.281 141.54 177.698 139.502 178.583C137.463 179.557 135.159 180 132.411 180C128.246 180 125.055 178.938 122.662 176.813C120.269 174.688 119.117 171.766 119.028 168.047V145.735H127.271V168.224C127.36 171.943 129.043 173.802 132.411 173.802C134.095 173.802 135.425 173.36 136.222 172.386C137.02 171.412 137.552 169.907 137.552 167.87V145.735H145.706Z" fill="white"/>
<path d="M178.587 175.396C177.346 176.813 175.485 177.875 173.092 178.761C170.699 179.646 168.04 180 165.115 180C160.684 180 157.139 178.672 154.48 175.927C151.821 173.183 150.403 169.464 150.226 164.594V161.673C150.226 158.308 150.846 155.386 151.998 152.907C153.151 150.428 154.834 148.48 157.05 147.152C159.266 145.824 161.748 145.116 164.672 145.116C168.926 145.116 172.206 146.09 174.51 148.038C176.814 149.985 178.232 152.819 178.587 156.714H170.699C170.433 154.855 169.813 153.438 168.926 152.642C167.952 151.845 166.711 151.402 164.938 151.402C162.9 151.402 161.304 152.287 160.152 153.97C159 155.74 158.468 158.22 158.468 161.407V163.443C158.468 166.808 159.089 169.375 160.241 171.058C161.393 172.74 163.254 173.625 165.736 173.625C167.863 173.625 169.458 173.183 170.522 172.209V166.985H164.85V161.407H178.676V175.396H178.587Z" fill="white"/>
<path d="M212 163.355C212 166.631 211.38 169.553 210.139 172.12C208.898 174.688 207.214 176.636 204.91 177.964C202.694 179.292 200.035 180 197.199 180C194.274 180 191.793 179.38 189.488 178.052C187.273 176.724 185.5 174.865 184.259 172.386C183.018 169.907 182.398 167.073 182.309 163.886V162.027C182.309 158.751 182.93 155.74 184.171 153.261C185.411 150.782 187.095 148.746 189.4 147.418C191.704 146.001 194.274 145.381 197.199 145.381C200.035 145.381 202.605 146.09 204.91 147.418C207.214 148.746 208.898 150.694 210.139 153.261C211.38 155.74 212 158.662 212 161.938V163.355ZM203.669 161.938C203.669 158.574 203.137 156.006 201.985 154.235C200.833 152.464 199.237 151.579 197.11 151.579C193.033 151.579 190.818 154.678 190.64 160.787V163.266C190.64 166.542 191.172 169.11 192.324 170.881C193.388 172.651 195.072 173.537 197.199 173.537C199.237 173.537 200.833 172.651 201.985 170.881C203.137 169.11 203.669 166.631 203.669 163.355V161.938Z" fill="white"/>
<path d="M50.1639 123.424L165.293 8.41162" stroke="white" stroke-width="2" stroke-miterlimit="10"/>
<path d="M51.4933 130.861V130.507L51.582 123.335L40.6806 134.137L40.592 141.84L51.4933 130.861Z" fill="white"/>
<path d="M31.8177 133.074L39.4398 132.897L50.3411 122.007C47.8595 122.361 45.2893 122.361 42.8077 122.184L31.8177 133.074Z" fill="white"/>
<path d="M166.445 16.557L163.786 10.0051L157.139 7.2604L172.826 0.974121L166.445 16.557Z" fill="white"/>
<path d="M158.734 123.424L43.694 8.41162" stroke="white" stroke-width="2" stroke-miterlimit="10"/>
<path d="M166.268 122.096L165.824 122.184L158.645 122.096L169.547 132.897L177.169 133.075L166.268 122.096Z" fill="white"/>
<path d="M168.483 141.752L168.306 134.137L157.405 123.335C157.759 125.815 157.759 128.382 157.582 130.861L168.483 141.752Z" fill="white"/>
<path d="M51.8478 7.2604L45.2007 10.0051L42.5418 16.557L36.1605 0.974121L51.8478 7.2604Z" fill="white"/>
<path d="M32.7031 69.5918C36.2483 69.5918 36.2483 72.248 39.8821 72.248C43.4272 72.248 43.4272 69.5918 47.061 69.5918C50.6061 69.5918 50.6061 72.248 54.2399 72.248C57.7851 72.248 57.7851 69.5918 61.4188 69.5918C64.964 69.5918 64.964 72.248 68.5978 72.248" fill="#36A9E1"/>
<path d="M68.4214 74.9041C65.7626 74.9041 64.2559 73.7531 63.281 73.0447C62.4833 72.5135 62.2174 72.2479 61.3311 72.2479C60.4448 72.2479 60.0903 72.5135 59.3813 73.0447C58.4064 73.7531 56.8997 74.9041 54.2408 74.9041C51.5819 74.9041 50.0753 73.7531 49.1003 73.0447C48.3027 72.5135 48.0368 72.2479 47.1505 72.2479C46.2642 72.2479 45.9097 72.5135 45.2007 73.0447C44.2258 73.7531 42.7191 74.9041 40.0602 74.9041C37.4013 74.9041 35.8947 73.7531 34.9197 73.0447C34.1221 72.5135 33.8562 72.2479 32.9699 72.2479V66.9355C35.6288 66.9355 37.1355 68.0866 38.1104 68.7949C38.908 69.3261 39.1739 69.5917 40.0602 69.5917C40.9465 69.5917 41.301 69.3261 42.01 68.7949C42.985 68.0866 44.4916 66.9355 47.1505 66.9355C49.8094 66.9355 51.3161 68.0866 52.291 68.7949C53.0886 69.3261 53.3545 69.5917 54.2408 69.5917C55.1271 69.5917 55.4816 69.3261 56.1906 68.7949C57.1656 68.0866 58.6723 66.9355 61.3311 66.9355C63.99 66.9355 65.4967 68.0866 66.4716 68.7949C67.2692 69.3261 67.5351 69.5917 68.4214 69.5917V74.9041Z" fill="#36A9E1"/>
<path d="M32.7031 58.9673C36.2483 58.9673 36.2483 61.6235 39.8821 61.6235C43.4272 61.6235 43.4272 58.9673 47.061 58.9673C50.6061 58.9673 50.6061 61.6235 54.2399 61.6235C57.7851 61.6235 57.7851 58.9673 61.4188 58.9673C64.964 58.9673 64.964 61.6235 68.5978 61.6235" fill="#36A9E1"/>
<path d="M68.4214 64.2796C65.7626 64.2796 64.2559 63.1286 63.281 62.4202C62.4833 61.889 62.2174 61.6234 61.3311 61.6234C60.4448 61.6234 60.0903 61.889 59.3813 62.4202C58.4064 63.1286 56.8997 64.2796 54.2408 64.2796C51.5819 64.2796 50.0753 63.1286 49.1003 62.4202C48.3027 61.889 48.0368 61.6234 47.1505 61.6234C46.2642 61.6234 45.9097 61.889 45.2007 62.4202C44.2258 63.1286 42.7191 64.2796 40.0602 64.2796C37.4013 64.2796 35.8947 63.1286 34.9197 62.4202C34.1221 61.889 33.8562 61.6234 32.9699 61.6234V56.311C35.6288 56.311 37.1355 57.462 38.1104 58.1704C38.908 58.7016 39.1739 58.9672 40.0602 58.9672C40.9465 58.9672 41.301 58.7016 42.01 58.1704C42.985 57.462 44.4916 56.311 47.1505 56.311C49.8094 56.311 51.3161 57.462 52.291 58.1704C53.0886 58.7016 53.3545 58.9672 54.2408 58.9672C55.1271 58.9672 55.4816 58.7016 56.1906 58.1704C57.1656 57.462 58.6723 56.311 61.3311 56.311C63.99 56.311 65.4967 57.462 66.4716 58.1704C67.2692 58.7016 67.5351 58.9672 68.4214 58.9672V64.2796Z" fill="#36A9E1"/>
<path d="M32.7031 80.2168C36.2483 80.2168 36.2483 82.873 39.8821 82.873C43.4272 82.873 43.4272 80.2168 47.061 80.2168C50.6061 80.2168 50.6061 82.873 54.2399 82.873C57.7851 82.873 57.7851 80.2168 61.4188 80.2168C64.964 80.2168 64.964 82.873 68.5978 82.873" fill="#36A9E1"/>
<path d="M68.4214 85.5291C65.7626 85.5291 64.2559 84.3781 63.281 83.6697C62.4833 83.1385 62.2174 82.8729 61.3311 82.8729C60.4448 82.8729 60.0903 83.1385 59.3813 83.6697C58.4064 84.3781 56.8997 85.5291 54.2408 85.5291C51.5819 85.5291 50.0753 84.3781 49.1003 83.6697C48.3027 83.1385 48.0368 82.8729 47.1505 82.8729C46.2642 82.8729 45.9097 83.1385 45.2007 83.6697C44.2258 84.3781 42.7191 85.5291 40.0602 85.5291C37.4013 85.5291 35.8947 84.3781 34.9197 83.6697C34.1221 83.1385 33.8562 82.8729 32.9699 82.8729V77.5605C35.6288 77.5605 37.1355 78.7116 38.1104 79.4199C38.908 79.9511 39.1739 80.2167 40.0602 80.2167C40.9465 80.2167 41.301 79.9511 42.01 79.4199C42.985 78.7116 44.4916 77.5605 47.1505 77.5605C49.8094 77.5605 51.3161 78.7116 52.291 79.4199C53.0886 79.9511 53.3545 80.2167 54.2408 80.2167C55.1271 80.2167 55.4816 79.9511 56.1906 79.4199C57.1656 78.7116 58.6723 77.5605 61.3311 77.5605C63.99 77.5605 65.4967 78.7116 66.4716 79.4199C67.2692 79.9511 67.5351 80.2167 68.4214 80.2167V85.5291Z" fill="#36A9E1"/>
<path d="M132.943 112.445C133.741 113.242 133.298 114.57 132.145 114.658C131.88 114.658 131.614 114.658 131.348 114.658C128.689 114.658 126.296 113.596 124.523 111.914C123.992 111.382 123.105 111.382 122.574 111.914C120.801 113.596 118.408 114.658 115.749 114.658C113.09 114.658 110.697 113.596 108.925 111.825C108.393 111.294 107.595 111.294 107.064 111.825C105.291 113.596 102.898 114.658 100.239 114.658C97.5802 114.658 95.1873 113.596 93.4147 111.914C92.8829 111.382 91.9966 111.382 91.4649 111.914C89.6923 113.596 87.2993 114.658 84.6404 114.658C84.3745 114.658 84.1087 114.658 83.8428 114.658C82.6906 114.57 82.2475 113.153 83.0451 112.356L84.1973 111.205C84.4632 110.94 84.8177 110.763 85.1722 110.674C87.6538 110.408 89.6036 108.726 90.224 106.424C90.4899 105.539 91.199 104.919 92.1739 104.919H92.3511C93.3261 104.919 94.301 105.539 94.5669 106.513C95.2759 108.992 97.4916 110.763 100.15 110.763C102.809 110.763 105.114 108.992 105.734 106.513C106 105.539 106.886 104.919 107.861 104.919C108.836 104.919 109.722 105.539 109.988 106.513C110.697 108.992 112.913 110.763 115.572 110.763C118.231 110.763 120.535 108.992 121.155 106.513C121.421 105.539 122.308 104.919 123.283 104.919C124.257 104.919 125.144 105.539 125.41 106.513C126.03 108.815 128.069 110.497 130.462 110.763C130.816 110.763 131.171 111.028 131.436 111.294L132.943 112.445Z" fill="#1D71B8"/>
<path d="M175.13 87.5648C174.244 86.9451 173.269 86.4138 172.383 85.794C170.079 84.2889 167.774 82.7837 165.47 81.2786C162.722 83.9347 160.064 86.5909 157.316 89.2471C155.278 91.1949 152.176 88.0961 154.214 86.1482C155.012 85.4399 155.721 84.643 156.518 83.9347C158.202 82.2525 159.975 80.5702 161.659 78.888C158.823 77.0287 155.898 75.1694 153.062 73.31C150.669 71.8049 152.885 67.9091 155.278 69.5029C156.164 70.1226 157.139 70.6539 158.025 71.2736C160.329 72.7788 162.634 74.284 164.938 75.7891C167.686 73.133 170.344 70.4768 173.092 67.8206C175.13 65.8727 178.232 68.9716 176.194 70.9195C175.396 71.6278 174.687 72.4246 173.89 73.133C172.206 74.8152 170.433 76.4974 168.749 78.1797C171.585 80.039 174.51 81.8983 177.346 83.7576C179.739 85.2628 177.523 89.1585 175.13 87.5648Z" fill="#432918"/>
<path d="M161.925 47.811C163.343 51.0869 165.647 53.0348 167.331 54.4514C169.281 56.0451 169.547 56.3993 169.547 57.2847C169.547 61.1804 166.977 64.3678 163.786 64.3678C160.595 64.3678 158.025 61.1804 158.025 57.2847C158.114 55.2483 160.064 51.0869 161.925 47.811ZM163.786 40.2852C161.747 40.2852 154.569 52.2379 154.569 57.2847C154.569 63.1282 158.734 67.9094 163.875 67.9094C169.015 67.9094 173.181 63.1282 173.181 57.2847C173.181 51.0869 164.318 51.9723 164.318 41.3476C164.318 40.5508 164.14 40.2852 163.786 40.2852Z" fill="#F39200"/>
<path d="M130.373 0C130.284 0 130.284 0 130.373 0C129.221 0 119.826 2.0364 110.431 8.23414C102.543 13.3694 102.366 23.6399 105.823 28.244L98.8211 37.0979C98.2007 37.8947 98.3779 38.9572 99.087 39.577C99.4415 39.8426 99.796 39.9311 100.15 39.9311C100.682 39.9311 101.214 39.6655 101.569 39.2228L108.57 30.3689C109.811 30.9001 111.318 31.1658 113.002 31.1658C118.408 31.1658 124.967 28.1554 127.005 21.2494C130.107 10.4476 130.816 0.177078 130.373 0ZM123.992 11.9528H123.194L126.296 8.05706C126.119 9.47368 125.853 10.9788 125.498 12.6611C125.055 12.2184 124.523 11.9528 123.992 11.9528ZM119.294 7.34875C119.206 7.34875 119.206 7.34875 119.294 7.34875C120.89 6.55189 122.396 5.93212 123.814 5.40089L121.067 8.85391C120.89 8.05706 120.181 7.34875 119.294 7.34875ZM107.152 20.364C107.241 18.5932 107.861 14.0777 112.293 11.2445C114.242 10.0049 116.104 8.94245 117.965 8.05706C117.699 8.41121 117.522 8.76537 117.522 9.20807V13.4579L115.572 15.937V14.4319C115.572 13.4579 114.774 12.6611 113.799 12.6611C112.824 12.6611 112.027 13.4579 112.027 14.4319V20.364L108.127 25.3222C107.507 24.0826 107.064 22.3119 107.152 20.364ZM123.548 20.364C121.865 26.2076 116.104 27.7127 112.913 27.7127C112.115 27.7127 111.406 27.6242 110.875 27.4471L114.686 22.666H120.712C121.687 22.666 122.485 21.8692 122.485 20.8952C122.485 19.9213 121.687 19.1244 120.712 19.1244H117.522L120.446 15.4058H124.08C124.435 15.4058 124.701 15.3173 124.967 15.1402C124.435 16.911 123.992 18.5932 123.548 20.364Z" fill="#008D36"/>
</svg>
